<?xml version="1.0" standalone="no"?>
<!DOCTYPE svg PUBLIC "-//W3C//DTD SVG 1.1//EN" "http://www.w3.org/Graphics/SVG/1.1/DTD/svg11.dtd" >
<svg xmlns="http://www.w3.org/2000/svg" xmlns:xlink="http://www.w3.org/1999/xlink" version="1.1">
<metadata>
Created by FontForge 20190801 at Fri Aug 18 23:58:40 2017
 By Jimmy Wärting
Copyright (c) 2003 by This Font is designed by Ralph Oliver du Carrois. All rights reserved.
</metadata>
<defs>
<font id="Colaborate-Light" horiz-adv-x="999" >
  <font-face 
    font-family="ColaborateLight"
    font-weight="400"
    font-stretch="normal"
    units-per-em="2048"
    panose-1="2 0 5 3 4 0 0 2 0 4"
    ascent="1638"
    descent="-410"
    x-height="936"
    cap-height="1325"
    bbox="-66 -428 2050 1710"
    underline-thickness="102"
    underline-position="-612"
    unicode-range="U+0020-FB02"
  />
<missing-glyph horiz-adv-x="748" 
d="M68 0v1365h544v-1365h-544zM136 68h408v1229h-408v-1229z" />
    <glyph glyph-name=".notdef" horiz-adv-x="748" 
d="M68 0v1365h544v-1365h-544zM136 68h408v1229h-408v-1229z" />
    <glyph glyph-name="glyph1" horiz-adv-x="0" 
 />
    <glyph glyph-name="glyph2" horiz-adv-x="682" 
 />
    <glyph glyph-name="space" unicode=" " horiz-adv-x="499" 
 />
    <glyph glyph-name="exclam" unicode="!" horiz-adv-x="499" 
d="M317 348h-135v977h135v-977zM332 0h-164v172h164v-172z" />
    <glyph glyph-name="quotedbl" unicode="&#x22;" horiz-adv-x="737" 
d="M578 1325l-17 -444h-102l-17 444h136zM297 1325l-16 -444h-105l-16 444h137z" />
    <glyph glyph-name="numbersign" unicode="#" 
d="M973 811h-217l-56 -313h193v-107h-211l-68 -391h-125l68 391h-227l-68 -391h-125l68 391h-178v107h198l54 313h-173v107h193l72 407h125l-72 -407h227l72 407h125l-72 -407h197v-107zM631 811h-228l-53 -313h225z" />
    <glyph glyph-name="dollar" unicode="$" 
d="M895 344q0 -322 -342 -371v-174h-121v166q-56 0 -119.5 10t-103.5 19.5t-117 30.5l51 131q5 -2 32 -12.5t33.5 -12.5t29.5 -10.5t31.5 -11t29 -8.5t32.5 -8t30.5 -5t35.5 -4.5t35 -1.5v547q-52 20 -84.5 34t-77.5 37.5t-73 50t-55 62.5t-39.5 83.5t-12.5 104.5
q0 156 93 239.5t249 102.5v185h121v-180q150 -7 287 -54l-52 -131q-6 3 -25 11t-26 11t-24.5 10t-28 10l-28 8t-32 7.5t-33.5 5t-38 3.5v-488q60 -23 101 -41.5t90.5 -52.5t79.5 -72.5t50.5 -98t20.5 -132.5zM434 788v435q-92 -15 -142 -70.5t-50 -151.5q0 -80 49.5 -127.5
t142.5 -85.5zM743 340q0 90 -50 144.5t-140 95.5v-482q84 23 137 81.5t53 160.5z" />
    <glyph glyph-name="percent" unicode="%" horiz-adv-x="1511" 
d="M1401 342q0 -61 -5 -108.5t-22 -98t-44.5 -83.5t-76 -54t-114.5 -21q-65 0 -112.5 21t-75 54t-43 83.5t-20.5 98t-5 108.5q0 350 258 350q65 0 113 -19.5t76 -50.5t44.5 -79t21.5 -94.5t5 -106.5zM1194 1288l-743 -1288h-129l741 1288h131zM629 997q0 -61 -5 -108.5
t-22 -97.5t-44.5 -83t-76 -54t-114.5 -21q-65 0 -112.5 21t-75 54t-43 83t-20.5 97.5t-5 108.5q0 351 258 351q65 0 113 -19.5t76 -51t44.5 -79t21.5 -94.5t5 -107zM1300 342q0 52 -2.5 87t-11.5 73.5t-25.5 61t-46.5 37.5t-73 15q-40 0 -69.5 -17t-45.5 -42.5t-26 -64.5
t-12.5 -73t-2.5 -77q0 -52 2.5 -89t11.5 -77.5t25.5 -65.5t45.5 -41t69 -16q43 0 73 16t47 40.5t26.5 65t12 77.5t2.5 90zM528 997q0 52 -2.5 87t-11.5 74t-25.5 61.5t-46.5 37.5t-73 15q-40 0 -69.5 -17t-45.5 -43t-26 -65t-12.5 -73t-2.5 -77q0 -52 2.5 -89t11.5 -77
t25.5 -65t45.5 -41t69 -16q43 0 73 16t47 40t26.5 64.5t12 77.5t2.5 90z" />
    <glyph glyph-name="ampersand" unicode="&#x26;" 
d="M905 0h-119l-28 111q-42 -62 -108.5 -101t-147.5 -39q-86 0 -159 23t-129 69t-88 120.5t-32 170.5q0 265 244 383q-8 6 -38.5 27.5t-46.5 34t-42 38.5t-40 49t-25 57t-11 71q0 73 17.5 132t54.5 107t101.5 74.5t152.5 26.5q325 0 325 -322q0 -116 -77 -193.5t-230 -142.5
q-81 -35 -131 -73t-82.5 -104.5t-32.5 -160.5q0 -40 9 -78.5t30 -75.5t52 -65t79 -45.5t107 -17.5q67 0 131.5 45.5t106.5 114.5v249h-211v101h344v-299q0 -49 5 -106.5t11.5 -110t7.5 -70.5zM649 1034q0 104 -42.5 159.5t-149.5 55.5q-183 0 -183 -233q0 -28 9.5 -54.5
t20.5 -44.5t33 -40t34.5 -32t38 -29t30.5 -23q34 14 60 27.5t55.5 35t48.5 45.5t32 58.5t13 74.5z" />
    <glyph glyph-name="quotesingle" unicode="'" horiz-adv-x="499" 
d="M317 1325l-16 -444h-102l-17 444h135z" />
    <glyph glyph-name="parenleft" unicode="(" horiz-adv-x="563" 
d="M457 -262h-123q-128 222 -172.5 385t-44.5 397q0 184 23.5 321.5t64.5 240t119 243.5h122q-108 -199 -147 -371t-39 -434q0 -229 39.5 -397.5t157.5 -384.5z" />
    <glyph glyph-name="parenright" unicode=")" horiz-adv-x="563" 
d="M449 520q0 -234 -44.5 -396.5t-173.5 -385.5h-122q118 215 157 383.5t39 398.5q0 262 -39 434t-147 371h123q78 -141 119 -243.5t64.5 -240t23.5 -321.5z" />
    <glyph glyph-name="asterisk" unicode="*" horiz-adv-x="798" 
d="M772 1012l-293 -72l-2 -12l191 -244l-93 -66l-163 254h-15l-170 -254l-92 68l193 242l-6 12l-295 74l39 112l282 -106l12 10l-14 297h115l-17 -301l13 -8l280 106z" />
    <glyph glyph-name="plus" unicode="+" 
d="M926 383h-363v-383h-129v383h-360v113h360v372h129v-372h363v-113z" />
    <glyph glyph-name="comma" unicode="," horiz-adv-x="499" 
d="M330 154l-166 -365h-107l115 365h158z" />
    <glyph glyph-name="hyphen" unicode="-" horiz-adv-x="669" 
d="M610 438h-551v119h551v-119z" />
    <glyph glyph-name="period" unicode="." horiz-adv-x="499" 
d="M330 0h-160v170h160v-170z" />
    <glyph glyph-name="slash" unicode="/" horiz-adv-x="520" 
d="M541 1348l-437 -1368h-127l439 1368h125z" />
    <glyph glyph-name="zero" unicode="0" 
d="M922 631q0 -79 -3.5 -142.5t-14.5 -134.5t-30 -124.5t-51.5 -104.5t-76.5 -84t-107.5 -52.5t-142.5 -19.5q-78 0 -141 20t-106.5 53t-75 84.5t-50 105t-29.5 124.5t-14.5 134t-3.5 141q0 637 422 637q79 0 141.5 -18.5t106.5 -49.5t76 -79t51 -99.5t30.5 -119.5
t15 -130.5t3.5 -140.5zM768 631q0 71 -1.5 119.5t-7.5 108t-17 98.5t-31 79.5t-48.5 63.5t-70 38t-94.5 15q-50 0 -91 -16.5t-68.5 -44t-48 -69.5t-32 -84.5t-18.5 -98.5t-9 -103.5t-2 -105.5q0 -71 1.5 -122t8 -112t17.5 -103.5t31 -84.5t47.5 -67.5t68.5 -41.5t93 -16
q43 0 78.5 10.5t62 26.5t47 44.5t34.5 56t23.5 69.5t14.5 76t8 85t3.5 87.5t0.5 91.5z" />
    <glyph glyph-name="one" unicode="1" 
d="M666 -2h-150v1081l-235 -202l-52 120l295 246h142v-1245z" />
    <glyph glyph-name="two" unicode="2" 
d="M895 0h-768l-49 125q32 30 111 99.5t139.5 123.5t137 132t127.5 143t86.5 137.5t35.5 132.5q0 138 -64.5 200t-191.5 62q-72 0 -134 -21.5t-167 -72.5l-52 129q112 45 191.5 62.5t165.5 17.5q87 0 158.5 -20.5t127 -63t86.5 -115t31 -170.5q0 -53 -18.5 -111t-46 -109
t-73 -110t-85.5 -103t-99 -101t-97 -91t-96 -85t-81 -72h625v-119z" />
    <glyph glyph-name="three" unicode="3" 
d="M846 324q0 -78 -24.5 -140t-65.5 -102t-98.5 -66t-119 -36.5t-130.5 -10.5q-109 0 -179.5 9.5t-156.5 39.5l51 129q4 -2 25.5 -10t28 -10t26 -9t30 -9.5t30 -7.5t34 -7t34.5 -5t40.5 -4t42.5 -1q119 0 198.5 60t79.5 182q0 67 -19.5 116t-52.5 78.5t-84.5 47.5t-106.5 24
t-128 6v111q68 0 118.5 5t98.5 20t78 40t48 67.5t18 100.5q0 61 -17.5 104t-50 66t-72 33t-90.5 10q-66 0 -132 -23.5t-155 -66.5l-51 129q66 33 164 54.5t176 21.5q180 0 280.5 -81t100.5 -243q0 -132 -77 -204t-197 -87q46 -7 87 -21.5t82 -40.5t70 -61.5t47.5 -89
t18.5 -118.5z" />
    <glyph glyph-name="four" unicode="4" 
d="M956 344h-196v-344h-150v344h-495l-54 123l551 776h148v-784h196v-115zM610 459v606l-426 -606h426z" />
    <glyph glyph-name="five" unicode="5" 
d="M897 391q0 -198 -121 -310t-323 -112q-205 0 -342 45l49 129q147 -59 295 -59q147 0 220 82t73 229q0 138 -64 211.5t-174 73.5q-48 0 -100.5 -15t-79 -27t-76.5 -38l-113 45v598h705v-115h-555v-376q15 4 46 13t52 14.5t55 10.5t70 5q185 0 284 -106t99 -298z" />
    <glyph glyph-name="six" unicode="6" 
d="M907 393q0 -176 -110 -300t-283 -124q-103 0 -179.5 35.5t-122 91.5t-73.5 139t-37.5 164.5t-9.5 180.5q0 101 17.5 198t57 186.5t96 157t140 108t183.5 40.5q130 0 258 -35l-49 -129q-46 18 -67 25.5t-58 15.5t-74 8q-114 0 -197.5 -71.5t-125.5 -193.5t-42 -280
q43 92 123 148.5t168 56.5q187 0 286 -113.5t99 -308.5zM754 393q0 309 -236 309q-59 0 -107 -20.5t-79.5 -55t-50 -64.5t-31.5 -64q0 -117 17 -198t52 -128t82.5 -67.5t114.5 -20.5q107 0 172.5 83t65.5 226z" />
    <glyph glyph-name="seven" unicode="7" 
d="M870 1130l-467 -1130h-165l497 1126h-645v117h727z" />
    <glyph glyph-name="eight" unicode="8" 
d="M924 303q0 -334 -430 -334q-63 0 -118 8.5t-112 31t-97 59t-65.5 96.5t-25.5 139q0 132 79.5 221.5t219.5 130.5q-1 0 -26.5 12t-38 18t-41 23t-45 31t-39 37.5t-35 47.5t-22 56.5t-9.5 67.5q0 158 101 240t284 82q191 0 290 -76t99 -244q0 -54 -21.5 -102t-53 -80.5
t-70 -57.5t-70.5 -38.5t-57 -18.5q150 -47 226.5 -132.5t76.5 -217.5zM745 946q0 111 -59.5 161t-181.5 50q-240 0 -240 -213q0 -47 22.5 -88.5t59.5 -70t74 -47.5t76 -31q55 13 109.5 42.5t97 82.5t42.5 114zM774 305q0 206 -274 293q-56 -17 -98 -37t-86.5 -53.5
t-68.5 -85t-24 -117.5q0 -108 72 -165.5t199 -57.5q128 0 204 55.5t76 167.5z" />
    <glyph glyph-name="nine" unicode="9" 
d="M905 659q0 -101 -17.5 -198t-56.5 -186.5t-95.5 -157t-140 -108t-183.5 -40.5q-130 0 -258 35l51 129q49 -20 67 -26.5t55 -14.5t74 -8q114 0 197.5 71.5t125.5 193.5t42 280q-43 -92 -123 -148.5t-168 -56.5q-186 0 -284.5 113.5t-98.5 308.5q0 114 49 211t139 155
t203 58q86 0 154.5 -23.5t113.5 -68t76.5 -99.5t47.5 -127.5t23 -141.5t7 -151zM748 741q0 155 -32 248t-88.5 129.5t-146.5 36.5q-107 0 -172 -83t-65 -226q0 -309 235 -309q59 0 107 20.5t79.5 54.5t50.5 64.5t32 64.5z" />
    <glyph glyph-name="colon" unicode=":" horiz-adv-x="499" 
d="M330 756h-160v170h160v-170zM330 0h-160v170h160v-170z" />
    <glyph glyph-name="semicolon" unicode=";" horiz-adv-x="499" 
d="M324 756h-160v170h160v-170zM330 154l-166 -365h-107l107 365h166z" />
    <glyph glyph-name="less" unicode="&#x3c;" 
d="M926 43l-854 344v162l854 346v-143l-717 -285l717 -283v-141z" />
    <glyph glyph-name="equal" unicode="=" 
d="M926 553h-854v119h854v-119zM926 199h-854v118h854v-118z" />
    <glyph glyph-name="greater" unicode="&#x3e;" 
d="M926 387l-854 -344v141l716 287l-716 281v143l854 -346v-162z" />
    <glyph glyph-name="question" unicode="?" horiz-adv-x="839" 
d="M778 1030q0 -49 -18.5 -93t-47.5 -76.5t-64.5 -63t-71 -60.5t-64.5 -60.5t-47.5 -69.5t-18.5 -83v-188h-141v199q0 65 24 119.5t60.5 89.5t78.5 70t78.5 63t60.5 68t24 85q0 106 -52 152.5t-167 46.5q-55 0 -134 -21.5t-137 -50.5l-37 127q176 62 308 62q61 0 111 -8
t98.5 -29.5t82 -56t54 -91t20.5 -131.5zM459 0h-164v172h164v-172z" />
    <glyph glyph-name="at" unicode="@" horiz-adv-x="1722" 
d="M1554 782q0 -136 -47.5 -239.5t-132 -165t-192 -91.5t-236.5 -30q-196 0 -316 104.5t-120 294.5q0 108 46 196.5t138 143t215 54.5q96 0 176 -31v-395l72 10l41 -107l-233 -28v436q-30 10 -60 10q-114 0 -186 -72.5t-72 -212.5q0 -81 25 -141t68.5 -94t96 -50t113.5 -16
q465 0 465 422q0 121 -41 213t-111.5 145t-156.5 79t-184 26q-95 0 -181.5 -19.5t-167 -64.5t-139.5 -111.5t-94 -167.5t-35 -225q0 -126 35.5 -227t94 -167t139 -110t166.5 -62.5t180 -18.5q121 0 215 16t219 57l49 -112q-217 -66 -490 -66q-225 0 -392 79.5t-260 236
t-93 374.5q0 133 37.5 245.5t105.5 194.5t161.5 139.5t207.5 85.5t242 28q92 0 180.5 -20.5t171 -66t144.5 -110t99 -160t37 -209.5z" />
    <glyph glyph-name="A" unicode="A" horiz-adv-x="1294" 
d="M1229 0h-168l-141 395h-545l-150 -395h-157l538 1325h123zM881 508l-222 629l-241 -629h463z" />
    <glyph glyph-name="B" unicode="B" horiz-adv-x="1187" 
d="M1069 377q0 -88 -23 -155t-61.5 -108.5t-96.5 -67.5t-120 -36t-139 -10h-428v1325h360q104 0 179.5 -14.5t139 -51t96 -106.5t32.5 -174q0 -101 -58 -176.5t-153 -108.5q128 -26 200 -105.5t72 -211.5zM854 977q0 133 -68 182t-225 49h-211v-469h240q117 0 190.5 59
t73.5 179zM913 377q0 75 -24.5 125.5t-71 76.5t-99.5 36t-124 10h-244v-508h266q56 0 98 6t81 22.5t64 45t39.5 75.5t14.5 111z" />
    <glyph glyph-name="C" unicode="C" horiz-adv-x="1112" 
d="M1030 25q-171 -60 -348 -60q-148 0 -257 51.5t-172.5 147t-93.5 219t-30 279.5q0 116 17 214t58 186.5t104 150.5t161.5 98.5t224.5 36.5q170 0 322 -50l-51 -131q-149 64 -271 64q-409 0 -409 -567q0 -582 397 -582q70 0 137.5 18.5t159.5 55.5z" />
    <glyph glyph-name="D" unicode="D" horiz-adv-x="1286" 
d="M1157 668q0 -359 -147.5 -513.5t-485.5 -154.5h-323v1325h323q344 0 488.5 -149.5t144.5 -507.5zM1001 666q0 208 -48.5 325.5t-150 167t-278.5 49.5h-174v-1091h193q235 0 346.5 132t111.5 417z" />
    <glyph glyph-name="E" unicode="E" horiz-adv-x="1097" 
d="M952 0h-751v1325h733v-117h-584v-465h541v-116h-541v-510h602v-117z" />
    <glyph glyph-name="F" unicode="F" horiz-adv-x="1048" 
d="M934 1206h-584v-471h559v-114h-559v-621h-149v1325h733v-119z" />
    <glyph glyph-name="G" unicode="G" horiz-adv-x="1220" 
d="M1092 80q-119 -61 -205.5 -88t-200.5 -27q-128 0 -227 39t-160.5 103.5t-100.5 156.5t-54 189t-15 211q0 157 32.5 279.5t100 214.5t179.5 141t264 49q117 0 305 -50l-52 -131q-146 64 -251 64q-215 0 -318.5 -139t-103.5 -428q0 -102 10.5 -184t38.5 -158t73 -127.5
t117 -82t168 -30.5q115 0 264 82v373h-292v118h428v-575z" />
    <glyph glyph-name="H" unicode="H" horiz-adv-x="1325" 
d="M1124 0h-149v625h-625v-625h-149v1325h149v-582h625v582h149v-1325z" />
    <glyph glyph-name="I" unicode="I" horiz-adv-x="501" 
d="M326 0h-150v1325h150v-1325z" />
    <glyph glyph-name="J" unicode="J" horiz-adv-x="815" 
d="M614 418q0 -88 -18.5 -161t-44 -123t-73 -92t-84 -65.5t-100.5 -46.5t-99 -32.5t-100 -24.5q-11 -3 -17 -4l-41 131q16 3 49 9q143 27 207 58q153 76 170 275q2 27 2 55v928h149v-907z" />
    <glyph glyph-name="K" unicode="K" horiz-adv-x="1206" 
d="M1174 0h-197l-627 639v-639h-149v1325h149v-602l588 602h164l-610 -629z" />
    <glyph glyph-name="L" unicode="L" horiz-adv-x="972" 
d="M956 0h-755v1325h149v-1202h606v-123z" />
    <glyph glyph-name="M" unicode="M" horiz-adv-x="1716" 
d="M1516 0h-146v1163l-452 -1163h-123l-457 1163v-1163h-137v1325h229l432 -1116l436 1116h218v-1325z" />
    <glyph glyph-name="N" unicode="N" horiz-adv-x="1380" 
d="M1180 0h-217l-625 1149v-1149h-137v1325h213l620 -1149v1149h146v-1325z" />
    <glyph glyph-name="O" unicode="O" horiz-adv-x="1392" 
d="M1264 657q0 -122 -18 -223.5t-60 -189.5t-106 -149t-160.5 -95.5t-219.5 -34.5q-129 0 -228 34.5t-163.5 94.5t-105 149t-57.5 190t-17 224q0 121 18.5 222.5t61.5 189.5t108 149t163 95.5t222 34.5q126 0 223 -34t160.5 -94t104 -148.5t57.5 -189.5t17 -225zM1108 657
q0 138 -20 239.5t-66 178.5t-126.5 116.5t-195.5 39.5q-116 0 -197.5 -39.5t-128.5 -117t-68 -179.5t-21 -238t21 -238t68 -179.5t128.5 -117.5t197.5 -40q117 0 198 41t126 120t64.5 179.5t19.5 234.5z" />
    <glyph glyph-name="P" unicode="P" horiz-adv-x="1136" 
d="M1026 948q0 -389 -420 -389h-256v-559h-149v1325h383q214 0 328 -88.5t114 -288.5zM872 948q0 78 -20 130t-60 80t-90.5 39t-121.5 11h-230v-532h240q143 0 212.5 59.5t69.5 212.5z" />
    <glyph glyph-name="Q" unicode="Q" horiz-adv-x="1392" 
d="M1264 657q0 -122 -18 -223.5t-60 -189.5t-106 -149t-160.5 -95.5t-219.5 -34.5q-129 0 -228 34.5t-163.5 94.5t-105 149t-57.5 190t-17 224q0 121 18.5 222.5t61 189.5t107.5 149t163 95.5t223 34.5q126 0 223 -34t160.5 -94t104 -148.5t57.5 -189.5t17 -225zM1139 -117
l-54 -116l-436 63l56 90zM1108 657q0 138 -20 239.5t-66 178.5t-126.5 116.5t-195.5 39.5q-116 0 -197.5 -39.5t-128.5 -117t-68 -179.5t-21 -238t21 -238t68 -179.5t128.5 -117.5t197.5 -40q117 0 198 41t126 120t64.5 179.5t19.5 234.5z" />
    <glyph glyph-name="R" unicode="R" horiz-adv-x="1202" 
d="M1110 0h-184l-437 592h-139v-592h-149v1325h413q85 0 156 -17.5t133 -56.5t97.5 -111t35.5 -171q0 -76 -18.5 -138.5t-60 -115t-116 -84t-177.5 -35.5zM883 969q0 117 -66.5 178t-191.5 61h-275v-499h277q256 0 256 260z" />
    <glyph glyph-name="S" unicode="S" horiz-adv-x="1124" 
d="M979 344q0 -379 -483 -379q-138 0 -357 60l51 131q63 -24 102 -37t97 -25t109 -12t95 7t88 25t75 46.5t50 74.5t19 105q0 42 -11 76.5t-35.5 61.5t-49 46.5t-67 39t-72 31t-81.5 30.5q-11 4 -17 6q-64 23 -105.5 41t-93.5 50t-82 67.5t-51 90t-21 121.5q0 73 25.5 132
t68.5 98.5t103 66t127.5 38.5t142.5 12q169 0 328 -54l-51 -131q-54 24 -81 34t-83 22t-115 12q-145 0 -228 -58t-83 -172q0 -38 14.5 -70t35.5 -53.5t59 -43t69.5 -35t81.5 -31.5q157 -56 215 -86q159 -84 197 -227q14 -51 14 -111z" />
    <glyph glyph-name="T" unicode="T" horiz-adv-x="1040" 
d="M987 1206h-393v-1206h-150v1206h-391v119h934v-119z" />
    <glyph glyph-name="U" unicode="U" horiz-adv-x="1388" 
d="M1188 485q0 -264 -117.5 -392t-361.5 -128q-267 0 -387.5 127.5t-120.5 396.5v836h149v-815q0 -126 21 -209.5t67.5 -131.5t111 -67.5t159.5 -19.5q173 0 251 98t78 330v815h150v-840z" />
    <glyph glyph-name="V" unicode="V" horiz-adv-x="1236" 
d="M1178 1325l-484 -1325h-131l-502 1325h166l406 -1122l385 1122h160z" />
    <glyph glyph-name="W" unicode="W" horiz-adv-x="1800" 
d="M1726 1325l-352 -1325h-174l-299 1053l-315 -1053h-178l-334 1325h157l283 -1126l311 1071h174l293 -1073l291 1128h143z" />
    <glyph glyph-name="X" unicode="X" horiz-adv-x="1185" 
d="M1108 0h-182l-338 569l-361 -569h-161l442 684l-387 641h174l303 -510l320 510h161l-405 -629z" />
    <glyph glyph-name="Y" unicode="Y" horiz-adv-x="1150" 
d="M1118 1325l-461 -729v-596h-149v588l-475 737h170l387 -598l371 598h157z" />
    <glyph glyph-name="Z" unicode="Z" horiz-adv-x="1103" 
d="M1012 1198l-758 -1079h741v-119h-856l-47 127l756 1079h-680v119h795z" />
    <glyph glyph-name="bracketleft" unicode="[" horiz-adv-x="557" 
d="M463 -260h-291v1644h291v-102h-162v-1434h162v-108z" />
    <glyph glyph-name="backslash" unicode="\" horiz-adv-x="520" 
d="M541 -20h-127l-437 1368h127z" />
    <glyph glyph-name="bracketright" unicode="]" horiz-adv-x="557" 
d="M393 -258h-291v108h162v1436h-162v100h291v-1644z" />
    <glyph glyph-name="asciicircum" unicode="^" 
d="M930 551h-142l-290 612l-291 -612h-135l370 774h109z" />
    <glyph glyph-name="underscore" unicode="_" horiz-adv-x="1024" 
d="M1026 -209h-1028v105h1028v-105z" />
    <glyph glyph-name="grave" unicode="`" horiz-adv-x="425" 
d="M387 1085h-106l-242 240h151z" />
    <glyph glyph-name="a" unicode="a" horiz-adv-x="980" 
d="M852 0h-119q-1 6 -17.5 53t-17.5 58q-39 -56 -108.5 -95t-153.5 -39q-151 0 -245.5 67.5t-94.5 201.5q0 60 14 107t48.5 88.5t91 69t144 43t204.5 15.5h90v72q0 102 -42.5 157.5t-143.5 55.5q-152 0 -320 -82l-47 115q189 71 369 71q149 0 234 -75.5t85 -225.5v-370
q0 -33 4.5 -76t12.5 -107.5t12 -103.5zM690 207v262h-63q-216 0 -302.5 -51t-86.5 -168q0 -78 56 -123t157 -45q81 0 143.5 33.5t95.5 91.5z" />
    <glyph glyph-name="b" unicode="b" horiz-adv-x="1005" 
d="M909 473q0 -103 -23 -191t-69.5 -157t-124 -108.5t-178.5 -39.5q-80 0 -144 39t-100 95l-28 -111h-117q18 176 18 287v1059h133v-549q37 62 112.5 111.5t160.5 49.5q96 0 167 -38.5t112.5 -107t61 -153.5t19.5 -186zM770 469q0 200 -67 292.5t-179 92.5q-44 0 -83 -16
t-64 -36.5t-48.5 -52.5t-33.5 -51t-23 -45v-428q82 -143 230 -143q135 0 201.5 99t66.5 288z" />
    <glyph glyph-name="c" unicode="c" horiz-adv-x="886" 
d="M809 39q-51 -25 -146 -43.5t-153 -18.5q-208 0 -311 129.5t-103 354.5q0 236 103 366.5t317 130.5q59 0 146 -19.5t143 -41.5l-47 -113q-57 29 -125.5 49.5t-118.5 20.5q-149 0 -213.5 -101.5t-64.5 -291.5q0 -379 276 -379q48 0 119.5 20t130.5 50z" />
    <glyph glyph-name="d" unicode="d" horiz-adv-x="1005" 
d="M883 0h-117l-31 111q-37 -56 -100 -95t-143 -39q-107 0 -185.5 39t-123.5 109t-66 156.5t-21 191.5q0 134 41.5 242t128 175.5t205.5 67.5q86 0 153 -46.5t105 -110.5v545h133v-1059q0 -43 2 -82.5t3.5 -58.5t7.5 -72t8 -74zM733 225v428q-14 29 -23.5 47t-32.5 51
t-46.5 52.5t-61 35t-80.5 15.5q-111 0 -182 -95.5t-71 -289.5q0 -191 64.5 -289t203.5 -98q147 0 229 143z" />
    <glyph glyph-name="e" unicode="e" horiz-adv-x="985" 
d="M885 422h-645q10 -342 272 -342q140 0 291 80l41 -111q-154 -72 -348 -72q-103 0 -181.5 38.5t-125 105.5t-70 152.5t-23.5 185.5q0 70 11 136t39 133t71 117t112.5 81.5t157.5 31.5q91 0 160 -25.5t114 -71t73 -114t39.5 -147.5t11.5 -178zM752 526q-3 168 -67 248
t-196 80q-111 0 -177.5 -84.5t-73.5 -243.5h514z" />
    <glyph glyph-name="f" unicode="f" horiz-adv-x="571" 
d="M571 1257q-127 -8 -196.5 -62.5t-69.5 -147.5v-111h213v-105h-213v-831h-133v831h-141v105h141v98q0 78 33.5 142t88 104.5t117 63.5t126.5 28z" />
    <glyph glyph-name="g" unicode="g" horiz-adv-x="1015" 
d="M948 -139q0 -89 -61.5 -151t-156 -89t-212.5 -27q-235 0 -336.5 66.5t-101.5 192.5q0 71 59 124.5t125 69.5q-125 54 -125 158q0 46 23.5 80t66.5 71q-20 23 -29.5 35.5t-30.5 47t-31.5 78.5t-10.5 95q0 37 9 78t35.5 90.5t66.5 87.5t108.5 64t155.5 26q88 0 155 -24
q268 21 289 22l-41 -102h-133q43 -34 77 -98.5t34 -139.5q0 -68 -21.5 -130t-65 -114t-118.5 -83t-172 -31q-42 0 -105.5 13t-91.5 30q-5 -7 -17.5 -21.5t-17 -21.5t-9.5 -19.5t-5 -25.5q0 -26 19 -44t82.5 -34t177.5 -26q101 -9 174 -25t118 -37t71.5 -51t36 -61.5
t9.5 -73.5zM743 614q0 116 -60 178t-177 62q-118 0 -179 -68.5t-61 -177.5q0 -112 61.5 -179t180.5 -67q63 0 110.5 22t73.5 59t38.5 80t12.5 91zM809 -139q0 61 -96.5 92t-343.5 55q-69 -16 -109.5 -62t-40.5 -91q0 -73 75.5 -115.5t223.5 -42.5q291 0 291 164z" />
    <glyph glyph-name="h" unicode="h" horiz-adv-x="1001" 
d="M858 0h-133v573q0 66 -7.5 112.5t-28.5 87t-63 61t-106 20.5q-87 0 -153 -63.5t-91 -135.5v-655h-133v1346h133v-549q36 62 106 111.5t159 49.5q317 0 317 -358v-600z" />
    <glyph glyph-name="i" unicode="i" horiz-adv-x="425" 
d="M287 1165h-148v160h148v-160zM281 0h-134v936h134v-936z" />
    <glyph glyph-name="j" unicode="j" horiz-adv-x="417" 
d="M279 1165h-150v160h150v-160zM270 12q0 -137 -69 -217t-211 -121l-43 115q107 23 148.5 68.5t41.5 136.5v942h133v-924z" />
    <glyph glyph-name="k" unicode="k" horiz-adv-x="903" 
d="M872 0h-161l-435 489v-489h-133v1346h133v-795l398 385h149l-424 -406z" />
    <glyph glyph-name="l" unicode="l" horiz-adv-x="419" 
d="M276 0h-133v1346h133v-1346z" />
    <glyph glyph-name="m" unicode="m" horiz-adv-x="1576" 
d="M1434 0h-134v594q0 45 -4.5 80.5t-18 70.5t-35.5 58t-59 37t-87 14q-83 0 -149.5 -63.5t-96.5 -145.5v-645h-133v594q0 260 -203 260q-79 0 -145 -62.5t-93 -134.5v-657h-133v721q0 35 -3 71t-8 78.5t-7 65.5h117l30 -139q40 59 110 110t153 51q61 0 108 -13t80 -39.5
t55.5 -58t42.5 -75.5q47 76 122 131t167 55q163 0 243.5 -87.5t80.5 -272.5v-598z" />
    <glyph glyph-name="n" unicode="n" horiz-adv-x="1001" 
d="M858 0h-133v582q0 48 -4 84t-16.5 73t-34.5 61t-60.5 39t-91.5 15q-84 0 -148.5 -61t-93.5 -138v-655h-133v737q0 46 -8.5 114t-9.5 85h117l28 -139q2 2 16 18.5t21 25t24.5 26t31 27.5t35 24t41.5 21.5t45.5 13t52.5 5.5q176 0 248.5 -96t72.5 -272v-590z" />
    <glyph glyph-name="o" unicode="o" horiz-adv-x="1017" 
d="M922 473q0 -84 -12.5 -155.5t-43 -135.5t-77 -108.5t-117.5 -70.5t-162 -26t-162.5 26t-118 70t-77 108t-43.5 135.5t-13 156.5q0 80 13 149.5t43.5 132.5t77 107t118 70t162.5 26q92 0 163 -25t117.5 -68t76.5 -105t42.5 -132.5t12.5 -154.5zM782 473q0 90 -13.5 157
t-44 119t-84 78.5t-130.5 26.5q-274 0 -274 -381q0 -88 13.5 -156t44 -122.5t85 -83.5t131.5 -29q78 0 132 28t84 82.5t43 122t13 158.5z" />
    <glyph glyph-name="p" unicode="p" horiz-adv-x="1005" 
d="M909 463q0 -80 -14 -151.5t-44 -133t-73.5 -106t-106.5 -70t-139 -25.5q-162 0 -256 129v-475h-133v1024q0 131 -18 281h117l32 -141q40 63 110.5 113t150.5 50q83 0 148 -26.5t107 -71t69 -108.5t38.5 -135t11.5 -154zM770 467q0 189 -62 288t-200 99
q-79 0 -142.5 -60.5t-91.5 -138.5v-432q19 -26 30.5 -39.5t35.5 -36.5t47 -34.5t59 -21t78 -9.5q112 0 179 94.5t67 290.5z" />
    <glyph glyph-name="q" unicode="q" horiz-adv-x="1005" 
d="M883 936q-21 -175 -21 -281v-1024h-133v475q-94 -129 -256 -129q-78 0 -141 25.5t-106.5 70t-73 106.5t-43 133t-13.5 151q0 103 22 190t66.5 156.5t120 109t174.5 39.5q80 0 145.5 -49t106.5 -114l35 141h117zM731 223v432q-28 78 -90.5 138.5t-140.5 60.5
q-131 0 -197.5 -101t-66.5 -286q0 -196 67 -290.5t180 -94.5q51 0 91.5 11.5t71 37t45.5 42t40 50.5z" />
    <glyph glyph-name="r" unicode="r" horiz-adv-x="702" 
d="M676 913l-47 -112q-26 23 -67 38t-81 15q-27 0 -52.5 -15t-44 -35t-37.5 -51.5t-29.5 -54t-24 -52.5t-17.5 -38v-608h-133v727q0 41 -3.5 81t-8.5 77.5t-6 50.5h117l28 -191q16 32 37 63t52 68t70 59.5t79 22.5q94 0 168 -45z" />
    <glyph glyph-name="s" unicode="s" horiz-adv-x="849" 
d="M758 252q0 -92 -50.5 -156t-127 -91.5t-170.5 -27.5q-187 0 -322 60l47 113q99 -41 150 -54.5t129 -13.5q99 0 150.5 44t51.5 124q0 21 -7 39.5t-15.5 32t-28.5 27t-32.5 21t-43 19t-43.5 15.5t-49 16q-40 13 -62.5 21t-59.5 23.5t-59 29t-48.5 35t-41 44.5t-24.5 54
t-10 67q0 72 29 125t79 82t109 43t127 14q69 0 132 -14t159 -49l-47 -113q-14 6 -42.5 19.5t-39.5 18.5t-33.5 13.5t-38.5 11.5t-39 6t-49 3q-94 0 -149.5 -37t-55.5 -117q0 -29 14.5 -51.5t47.5 -40t59.5 -27.5t77.5 -26q138 -42 194 -75q132 -78 132 -228z" />
    <glyph glyph-name="t" unicode="t" horiz-adv-x="520" 
d="M557 0l-43 -121q-168 33 -255 123t-87 225v604h-141v105h141v240h133v-240h215v-105h-215v-606q0 -104 60.5 -155t191.5 -70z" />
    <glyph glyph-name="u" unicode="u" horiz-adv-x="989" 
d="M864 0h-116l-31 139q-3 -3 -21.5 -26t-30 -36t-36 -34.5t-47 -34t-55.5 -22t-68 -9.5q-170 0 -243 97.5t-73 271.5v590h133v-582q0 -48 4 -84t16.5 -73t33.5 -61t58.5 -39t88.5 -15q83 0 143.5 60t90.5 139v655h133v-737q0 -45 9 -110.5t11 -88.5z" />
    <glyph glyph-name="v" unicode="v" horiz-adv-x="1001" 
d="M922 936l-361 -936h-117l-362 936h143l283 -762l276 762h138z" />
    <glyph glyph-name="w" unicode="w" horiz-adv-x="1458" 
d="M1380 936l-319 -936h-133l-201 659l-217 -659h-137l-295 936h141l234 -766l219 676h123l204 -672l248 762h133z" />
    <glyph glyph-name="x" unicode="x" horiz-adv-x="921" 
d="M870 0h-161l-248 381l-264 -381h-146l336 473l-313 463h159l236 -358l244 358h141l-317 -449z" />
    <glyph glyph-name="y" unicode="y" horiz-adv-x="995" 
d="M913 936l-391 -1086q-41 -113 -101.5 -174t-182.5 -104l-43 117q146 40 180 133l82 217l-375 897h143l299 -743l254 743h135z" />
    <glyph glyph-name="z" unicode="z" horiz-adv-x="839" 
d="M764 823l-537 -719h512v-104h-616l-47 113l538 718h-489v105h592z" />
    <glyph glyph-name="braceleft" unicode="{" horiz-adv-x="731" 
d="M621 -242q-90 2 -155.5 27.5t-101.5 67.5t-58 95t-30.5 112t-13.5 118t-12 113t-22 96.5t-47 69t-83 30.5v113q49 2 80.5 27t45.5 66.5t20.5 95t11.5 112t13.5 117.5t31.5 113t59.5 96t103 68.5t157.5 29.5v-111q-84 0 -136.5 -30.5t-73.5 -81t-29.5 -113t-12.5 -130.5
t-14 -128.5t-42 -112.5t-88 -77q58 -21 91 -70t43 -109t14.5 -128.5t13 -133t29.5 -116.5t72 -83.5t133 -31.5v-111z" />
    <glyph glyph-name="bar" unicode="|" horiz-adv-x="499" 
d="M309 -340h-121v1778h121v-1778z" />
    <glyph glyph-name="braceright" unicode="}" horiz-adv-x="731" 
d="M633 487q-51 -4 -83 -30.5t-47 -69t-22 -96.5t-12 -113t-13.5 -118t-30.5 -112t-57.5 -95t-101 -67.5t-155.5 -27.5v111q82 0 133 31.5t71.5 83.5t29 116.5t13 133t15 128.5t43 109t90.5 70q-56 25 -88 77t-41.5 112.5t-13.5 128.5t-12.5 130.5t-29.5 113t-73.5 81
t-136.5 30.5v111q91 -3 157.5 -29.5t103 -68.5t59 -96t31 -113t13.5 -117.5t11.5 -112t20.5 -95t45.5 -66.5t80.5 -27v-113z" />
    <glyph glyph-name="asciitilde" unicode="~" 
d="M946 524q0 -98 -70.5 -156.5t-173.5 -58.5q-55 0 -116.5 25t-105.5 55t-93 55t-82 25q-69 0 -103 -35t-34 -112l-115 57q0 100 66.5 157.5t171.5 57.5q55 0 115.5 -24.5t104 -54.5t93 -54.5t84.5 -24.5q68 0 105.5 37.5t37.5 108.5z" />
    <glyph glyph-name="uni00A0" unicode="&#xa0;" horiz-adv-x="499" 
 />
    <glyph glyph-name="exclamdown" unicode="&#xa1;" horiz-adv-x="499" 
d="M332 1153h-164v172h164v-172zM317 0h-133v977h133v-977z" />
    <glyph glyph-name="cent" unicode="&#xa2;" horiz-adv-x="866" 
d="M788 39q-84 -41 -229 -57v-185h-117v185q-174 21 -260 148t-86 331q0 449 346 493v189h117v-187q105 -10 225 -59l-47 -113q-89 47 -178 62v-758q87 13 182 64zM442 92v754q-206 -41 -206 -385q0 -328 206 -369z" />
    <glyph glyph-name="sterling" unicode="&#xa3;" 
d="M948 0h-844v123h140v555h-148v113h148v53q0 90 18.5 164t45 124t74 90t86.5 62.5t103 42.5t103 27.5t106 19.5l41 -131q-12 -2 -35 -5q-43 -6 -64.5 -9.5t-61 -11.5t-61.5 -17t-54.5 -24.5t-51 -34t-40.5 -46.5t-33 -61.5t-19 -79t-8 -98.5v-65h357v-113h-357v-555h555
v-123z" />
    <glyph glyph-name="currency" unicode="&#xa4;" 
d="M1047 1292l-39 -131q-151 70 -285 70q-87 0 -152 -27.5t-106.5 -79.5t-66 -116t-38.5 -148h568l-37 -119h-543q-2 -27 -2 -77q0 -12 1 -34t1 -32h504l-35 -117h-459q11 -91 34.5 -160t64 -124.5t104.5 -85t150 -29.5q48 0 103 13.5t84.5 24.5t105.5 42v-150
q-81 -25 -142.5 -36t-150.5 -11q-120 0 -211.5 37t-151 107t-94.5 161.5t-51 210.5h-203l35 117h158q0 10 -1.5 32t-1.5 32q0 38 3 79h-193l35 119h170q17 109 53.5 195t97 153t154 103.5t213.5 36.5q161 0 324 -56z" />
    <glyph glyph-name="yen" unicode="&#xa5;" 
d="M985 1325l-381 -690h277v-113h-299v-145h299v-113h-299v-264h-150v264h-297v113h297v145h-297v113h271l-394 690h168l332 -594l319 594h154z" />
    <glyph glyph-name="brokenbar" unicode="&#xa6;" horiz-adv-x="499" 
d="M313 735h-129v479h129v-479zM313 -160h-129v479h129v-479z" />
    <glyph glyph-name="section" unicode="&#xa7;" horiz-adv-x="935" 
d="M815 649q0 -72 -37.5 -125.5t-99.5 -81.5q100 -67 100 -200q0 -70 -28 -124t-76.5 -86.5t-109 -48.5t-130.5 -16q-163 0 -301 60l49 118q10 -4 33.5 -14.5t32 -14t28 -11t30 -10.5t28.5 -8t32 -6.5t33 -3t39 -1.5q197 0 197 164q0 48 -28.5 82t-73.5 54t-100 36
t-110 35.5t-100 46t-73.5 73.5t-28.5 111q0 162 139 223q-106 64 -106 182q0 72 29.5 125t80 82.5t109.5 43.5t127 14q119 0 270 -64l-47 -117q-49 27 -72 38.5t-64 22.5t-85 11q-205 0 -205 -149q0 -40 28.5 -68t74.5 -45t101 -33t110 -38t101 -51.5t74.5 -82t28.5 -123.5z
M672 647q0 31 -12 56t-27 40.5t-48 31t-53.5 22.5t-67 20.5t-67.5 20.5q-133 -22 -133 -156q0 -31 16 -54.5t49 -40.5t63.5 -27.5t81 -25.5t79.5 -26q119 40 119 139z" />
    <glyph glyph-name="dieresis" unicode="&#xa8;" horiz-adv-x="573" 
d="M434 1176h-133v149h133v-149zM125 1176h-133v149h133v-149z" />
    <glyph glyph-name="copyright" unicode="&#xa9;" horiz-adv-x="1474" 
d="M1423 664q0 -142 -53.5 -269t-145.5 -218t-219 -144t-268 -53t-268 53t-219 144t-145.5 218t-53.5 269t53.5 269t145.5 218t219 144t268 53q144 0 271 -52.5t218 -143t144 -217.5t53 -271zM1323 664q0 162 -77 299t-212 217t-297 80q-163 0 -297.5 -80t-211 -216.5
t-76.5 -299.5q0 -160 77.5 -297t212.5 -218t295 -81t295 81t213 218t78 297zM948 281q-115 -39 -219 -39q-179 0 -263.5 112t-84.5 305q0 69 11 128t37 112t66 90.5t101 59.5t139 22q101 0 205 -33l-33 -88q-98 41 -172 41q-59 0 -103.5 -17.5t-72.5 -47t-45.5 -72.5
t-24 -89t-6.5 -103q0 -340 246 -340q71 0 189 47z" />
    <glyph glyph-name="ordfeminine" unicode="&#xaa;" 
d="M733 801h-84q0 4 -9.5 28.5t-10.5 30.5q-24 -31 -65 -51.5t-91 -20.5q-90 0 -147.5 37.5t-57.5 110.5q0 87 66.5 134.5t234.5 47.5h54v33q0 55 -24.5 80.5t-86.5 25.5q-102 0 -193 -43l-28 74q112 39 221 39q91 0 147 -41.5t56 -122.5v-205q0 -15 18 -157zM625 934v117
h-39q-125 0 -174.5 -25t-49.5 -88q0 -82 119 -82q47 0 84.5 22t59.5 56z" />
    <glyph glyph-name="guillemotleft" unicode="&#xab;" horiz-adv-x="745" 
d="M682 926l-199 -369l197 -369h-129l-191 365l191 373h131zM389 926l-199 -369l197 -369h-129l-190 365l190 373h131z" />
    <glyph glyph-name="logicalnot" unicode="&#xac;" 
d="M946 221h-129v365h-776v112h905v-477z" />
    <glyph glyph-name="uni00AD" unicode="&#xad;" horiz-adv-x="669" 
d="M610 438h-551v119h551v-119z" />
    <glyph glyph-name="registered" unicode="&#xae;" horiz-adv-x="1474" 
d="M1423 664q0 -142 -53.5 -269t-145.5 -218t-219 -144t-268 -53t-268 53t-219 144t-145.5 218t-53.5 269t53.5 269t145.5 218t219 144t268 53q144 0 271 -52.5t218 -143t144 -217.5t53 -271zM1323 664q0 162 -77 299t-212 217t-297 80q-163 0 -297.5 -80t-211 -216.5
t-76.5 -299.5q0 -160 77.5 -297t212.5 -218t295 -81t295 81t213 218t78 297zM1055 264h-121l-277 354h-75v-354h-99v797h260q53 0 98.5 -11t84.5 -34.5t61.5 -67t22.5 -102.5q0 -95 -56.5 -158.5t-181.5 -69.5zM907 846q0 69 -37.5 102t-119.5 33h-168v-285h170
q155 0 155 150z" />
    <glyph glyph-name="macron" unicode="&#xaf;" horiz-adv-x="425" 
d="M451 1159h-476v121h476v-121z" />
    <glyph glyph-name="degree" unicode="&#xb0;" horiz-adv-x="798" 
d="M700 958q0 -126 -88.5 -208t-214.5 -82q-125 0 -212 81.5t-87 208.5t88 213t213 86t213 -86t88 -213zM588 958q0 85 -53.5 140t-135.5 55t-135 -55t-53 -140q0 -76 56 -131t130 -55q75 0 133 55.5t58 130.5z" />
    <glyph glyph-name="plusminus" unicode="&#xb1;" 
d="M926 506h-363v-260h-129v260h-360v112h360v250h129v-250h363v-112zM926 2h-854v119h854v-119z" />
    <glyph glyph-name="uni00B2" unicode="&#xb2;" horiz-adv-x="679" 
d="M588 649h-465l-29 74q22 19 81.5 66t104.5 85.5t94.5 87t77 94.5t27.5 85q0 74 -38 102.5t-117 28.5q-83 0 -183 -51l-28 82q116 45 213 45q110 0 183 -51.5t73 -155.5q0 -38 -19.5 -80t-47 -76t-71 -74.5t-77 -67.5t-80 -63t-66.5 -53h367v-78z" />
    <glyph glyph-name="uni00B3" unicode="&#xb3;" horiz-adv-x="679" 
d="M580 827q0 -54 -24 -93.5t-65.5 -60.5t-88 -30.5t-99.5 -9.5q-120 0 -201 26l29 82q36 -12 50.5 -16.5t51 -11t74.5 -6.5q170 0 170 120q0 86 -60.5 116t-176.5 30v71q52 0 88 4.5t67.5 17t47.5 38t16 63.5q0 63 -36.5 84t-105.5 21q-64 0 -172 -49l-28 82q39 19 97.5 31
t104.5 12q111 0 176.5 -45t65.5 -134q0 -73 -46.5 -112t-119.5 -47q77 -11 131 -54.5t54 -128.5z" />
    <glyph glyph-name="acute" unicode="&#xb4;" horiz-adv-x="425" 
d="M387 1325l-242 -240h-106l197 240h151z" />
    <glyph glyph-name="mu" unicode="&#xb5;" 
d="M868 0h-116l-31 139q-4 -5 -21 -26.5t-29 -35.5t-35.5 -34.5t-46 -33.5t-55 -22.5t-67.5 -9.5q-120 0 -184 64v-410h-136v1305h136v-582q0 -48 4 -84t16 -73t33.5 -61t58.5 -39t88 -15q44 0 83 21.5t67.5 56.5t48 69.5t33.5 71.5v635h135v-737q0 -46 8.5 -114t9.5 -85z
" />
    <glyph glyph-name="paragraph" unicode="&#xb6;" horiz-adv-x="1105" 
d="M991 -385h-129v1597h-207q-99 0 -160 -60t-61 -177q0 -88 61 -148t140 -82v-1130h-129v1022q-94 7 -163.5 40.5t-106.5 83.5t-54.5 104t-17.5 112q0 39 6 75t20 77.5t42 75t68 61.5t102.5 43.5t140.5 15.5h448v-1710z" />
    <glyph glyph-name="periodcentered" unicode="&#xb7;" horiz-adv-x="499" 
d="M336 492h-172v178h172v-178z" />
    <glyph glyph-name="cedilla" unicode="&#xb8;" horiz-adv-x="425" 
d="M401 -195q0 -85 -55.5 -132.5t-152.5 -47.5q-62 0 -187 17l37 104q116 -14 139 -14q41 0 70 17.5t29 51.5q0 24 -10 37.5t-47 22t-107 8.5l43 162h114l-20 -92q70 0 108.5 -41.5t38.5 -92.5z" />
    <glyph glyph-name="uni00B9" unicode="&#xb9;" horiz-adv-x="679" 
d="M432 641h-102v582l-137 -111l-31 78l176 135h94v-684z" />
    <glyph glyph-name="ordmasculine" unicode="&#xba;" 
d="M750 1079q0 -123 -58.5 -197.5t-189.5 -74.5t-191.5 74.5t-60.5 197.5q0 117 61 193t191 76q68 0 117.5 -21t77.5 -59t40.5 -84.5t12.5 -104.5zM657 1079q0 100 -35.5 149.5t-119.5 49.5q-160 0 -160 -199q0 -98 37.5 -150t122.5 -52q155 0 155 202z" />
    <glyph glyph-name="guillemotright" unicode="&#xbb;" horiz-adv-x="745" 
d="M678 553l-191 -365h-129l197 369l-199 369h131zM385 553l-190 -365h-129l196 369l-199 369h132z" />
    <glyph glyph-name="onequarter" unicode="&#xbc;" horiz-adv-x="1511" 
d="M1296 182h-108v-182h-101v182h-296l-33 76l332 426h98v-426h108v-76zM1108 1288l-750 -1288h-122l743 1288h129zM401 641h-100v582l-139 -111l-29 78l174 135h94v-684zM1087 258v315l-243 -315h243z" />
    <glyph glyph-name="onehalf" unicode="&#xbd;" horiz-adv-x="1511" 
d="M1364 0h-463l-31 80q24 21 82.5 66t104.5 83.5t95 85.5t77 92.5t28 84.5q0 74 -38 102.5t-117 28.5q-82 0 -184 -52l-29 84q111 43 215 43q110 0 182 -51t72 -155q0 -45 -24 -93t-71 -96t-84.5 -81t-99.5 -81t-80 -63h365v-78zM1104 1288l-742 -1288h-131l742 1288h131z
M399 641h-102v582l-137 -111l-31 78l176 135h94v-684z" />
    <glyph glyph-name="threequarters" unicode="&#xbe;" horiz-adv-x="1511" 
d="M1343 182h-108v-182h-100v182h-297l-33 76l332 426h98v-426h108v-76zM1163 1288l-743 -1288h-127l741 1288h129zM571 827q0 -54 -23.5 -93.5t-64 -60.5t-87 -30.5t-99.5 -9.5q-122 0 -203 26l31 82q36 -12 50.5 -16.5t51 -11t74.5 -6.5q168 0 168 120q0 86 -60 116
t-176 30v71q52 0 87.5 4.5t67.5 17t47.5 38t15.5 63.5q0 63 -36 84t-104 21q-64 0 -172 -49l-30 82q39 18 98 30.5t106 12.5q110 0 175 -45t65 -134q0 -73 -45.5 -112t-118.5 -47q77 -11 129.5 -54.5t52.5 -128.5zM1135 258v315l-244 -315h244z" />
    <glyph glyph-name="questiondown" unicode="&#xbf;" horiz-adv-x="839" 
d="M586 1153h-162v172h162v-172zM778 41q-173 -61 -307 -61q-77 0 -137.5 13.5t-115 46.5t-84.5 97.5t-30 157.5q0 49 18.5 93t47.5 76.5t64.5 63t71 60.5t64.5 60.5t47.5 69.5t18.5 83v188h139v-198q0 -77 -33.5 -138.5t-80.5 -101.5t-94.5 -76t-81 -81.5t-33.5 -98.5
q0 -106 52 -152.5t167 -46.5q55 0 133.5 21.5t136.5 50.5z" />
    <glyph glyph-name="Agrave" unicode="&#xc0;" horiz-adv-x="1294" 
d="M1229 0h-168l-141 395h-545l-150 -395h-157l538 1325h123zM881 508l-222 629l-241 -629h463zM850 1401h-107l-241 239h157z" />
    <glyph glyph-name="Aacute" unicode="&#xc1;" horiz-adv-x="1294" 
d="M1229 0h-168l-141 395h-545l-150 -395h-157l538 1325h123zM881 508l-222 629l-241 -629h463zM838 1636l-242 -239h-107l197 239h152z" />
    <glyph glyph-name="Acircumflex" unicode="&#xc2;" horiz-adv-x="1294" 
d="M1229 0h-168l-141 395h-545l-150 -395h-157l538 1325h123zM881 508l-222 629l-241 -629h463zM901 1432h-110l-127 143l-132 -143h-110l182 225h119z" />
    <glyph glyph-name="Atilde" unicode="&#xc3;" horiz-adv-x="1294" 
d="M1229 0h-168l-141 395h-545l-150 -395h-157l538 1325h123zM881 508l-222 629l-241 -629h463zM948 1546q-22 -61 -67 -98t-109 -37q-40 0 -103.5 40t-93.5 40q-67 0 -94 -88l-90 39q34 78 74.5 107.5t112.5 29.5q37 0 100 -38t90 -38q63 0 90 84z" />
    <glyph glyph-name="Adieresis" unicode="&#xc4;" horiz-adv-x="1294" 
d="M1229 0h-168l-141 395h-545l-150 -395h-157l538 1325h123zM881 508l-222 629l-241 -629h463zM885 1411h-133v150h133v-150zM575 1411h-133v150h133v-150z" />
    <glyph glyph-name="Aring" unicode="&#xc5;" horiz-adv-x="1294" 
d="M1229 0h-168l-141 395h-545l-150 -395h-157l538 1325h123zM881 508l-222 629l-241 -629h463zM858 1542q0 -70 -49.5 -119t-120.5 -49q-69 0 -119.5 49.5t-50.5 118.5q0 70 49.5 119t120.5 49q72 0 121 -48t49 -120zM786 1544q0 43 -27 72t-71 29q-43 0 -71.5 -31
t-28.5 -70q0 -36 29 -68t71 -32q47 0 72.5 29.5t25.5 70.5z" />
    <glyph glyph-name="AE" unicode="&#xc6;" horiz-adv-x="1843" 
d="M1698 0h-649l-68 395h-526l-219 -395h-168l751 1325h860v-117h-696l84 -465h569v-116h-546l92 -510h516v-117zM961 508l-107 622l-340 -622h447z" />
    <glyph glyph-name="Ccedilla" unicode="&#xc7;" horiz-adv-x="1112" 
d="M1030 25q-164 -57 -317 -60l-4 -26q70 0 109.5 -41.5t39.5 -92.5q0 -84 -57 -132t-154 -48q-61 0 -186 17l35 106q22 -3 53.5 -7.5t50.5 -6.5t37 -2q41 0 69.5 17.5t28.5 51.5q0 24 -10 37.5t-47 22t-107 8.5l27 102q-125 14 -217 70.5t-146.5 149t-80 209.5t-25.5 262
q0 116 17 214t58 186.5t104 150.5t161.5 98.5t224.5 36.5q170 0 322 -50l-51 -131q-149 64 -271 64q-409 0 -409 -567q0 -582 397 -582q70 0 137.5 18.5t159.5 55.5z" />
    <glyph glyph-name="Egrave" unicode="&#xc8;" horiz-adv-x="1097" 
d="M952 0h-751v1325h733v-117h-584v-465h541v-116h-541v-510h602v-117zM715 1403h-107l-241 239h151z" />
    <glyph glyph-name="Eacute" unicode="&#xc9;" horiz-adv-x="1097" 
d="M952 0h-751v1325h733v-117h-584v-465h541v-116h-541v-510h602v-117zM772 1626l-242 -240h-106l197 240h151z" />
    <glyph glyph-name="Ecircumflex" unicode="&#xca;" horiz-adv-x="1097" 
d="M952 0h-751v1325h733v-117h-584v-465h541v-116h-541v-510h602v-117zM811 1411h-111l-127 143l-131 -143h-110l182 225h119z" />
    <glyph glyph-name="Edieresis" unicode="&#xcb;" horiz-adv-x="1097" 
d="M952 0h-751v1325h733v-117h-584v-465h541v-116h-541v-510h602v-117zM797 1411h-133v150h133v-150zM487 1411h-133v150h133v-150z" />
    <glyph glyph-name="Igrave" unicode="&#xcc;" horiz-adv-x="501" 
d="M330 0h-150v1325h150v-1325zM410 1417h-107l-242 240h119z" />
    <glyph glyph-name="Iacute" unicode="&#xcd;" horiz-adv-x="501" 
d="M326 0h-150v1325h150v-1325zM432 1657l-242 -240h-106l197 240h151z" />
    <glyph glyph-name="Icircumflex" unicode="&#xce;" horiz-adv-x="501" 
d="M326 0h-150v1325h150v-1325zM492 1427h-111l-127 144l-131 -144h-111l183 226h118z" />
    <glyph glyph-name="Idieresis" unicode="&#xcf;" horiz-adv-x="501" 
d="M328 0h-150v1325h150v-1325zM473 1440h-133v149h133v-149zM164 1440h-133v149h133v-149z" />
    <glyph glyph-name="Eth" unicode="&#xd0;" horiz-adv-x="1286" 
d="M1157 668q0 -359 -147.5 -513.5t-485.5 -154.5h-323v694h-142v111h142v520h323q344 0 488.5 -149.5t144.5 -507.5zM1001 666q0 208 -48.5 325.5t-150 167t-278.5 49.5h-174v-403h307v-111h-307v-577h193q235 0 346.5 132t111.5 417z" />
    <glyph glyph-name="Ntilde" unicode="&#xd1;" horiz-adv-x="1380" 
d="M1180 0h-217l-625 1149v-1149h-137v1325h213l620 -1149v1149h146v-1325zM946 1542q-22 -61 -67 -98t-109 -37q-40 0 -103.5 40t-93.5 40q-67 0 -94 -88l-90 39q34 78 74 107.5t112 29.5q37 0 100.5 -38t90.5 -38q63 0 90 84z" />
    <glyph glyph-name="Ograve" unicode="&#xd2;" horiz-adv-x="1392" 
d="M1264 657q0 -122 -18 -223.5t-60 -189.5t-106 -149t-160.5 -95.5t-219.5 -34.5q-129 0 -228 34.5t-163.5 94.5t-105 149t-57.5 190t-17 224q0 121 18.5 222.5t61.5 189.5t108 149t163 95.5t222 34.5q126 0 223 -34t160.5 -94t104 -148.5t57.5 -189.5t17 -225zM1108 657
q0 138 -20 239.5t-66 178.5t-126.5 116.5t-195.5 39.5q-116 0 -197.5 -39.5t-128.5 -117t-68 -179.5t-21 -238t21 -238t68 -179.5t128.5 -117.5t197.5 -40q117 0 198 41t126 120t64.5 179.5t19.5 234.5zM815 1403h-106l-242 239h151z" />
    <glyph glyph-name="Oacute" unicode="&#xd3;" horiz-adv-x="1392" 
d="M1264 657q0 -122 -18 -223.5t-60 -189.5t-106 -149t-160.5 -95.5t-219.5 -34.5q-129 0 -228 34.5t-163.5 94.5t-105 149t-57.5 190t-17 224q0 121 18.5 222.5t61.5 189.5t108 149t163 95.5t222 34.5q126 0 223 -34t160.5 -94t104 -148.5t57.5 -189.5t17 -225zM1108 657
q0 138 -20 239.5t-66 178.5t-126.5 116.5t-195.5 39.5q-116 0 -197.5 -39.5t-128.5 -117t-68 -179.5t-21 -238t21 -238t68 -179.5t128.5 -117.5t197.5 -40q117 0 198 41t126 120t64.5 179.5t19.5 234.5zM924 1636l-242 -239h-107l197 239h152z" />
    <glyph glyph-name="Ocircumflex" unicode="&#xd4;" horiz-adv-x="1392" 
d="M1264 657q0 -122 -18 -223.5t-60 -189.5t-106 -149t-160.5 -95.5t-219.5 -34.5q-129 0 -228 34.5t-163.5 94.5t-105 149t-57.5 190t-17 224q0 121 18.5 222.5t61.5 189.5t108 149t163 95.5t222 34.5q126 0 223 -34t160.5 -94t104 -148.5t57.5 -189.5t17 -225zM1108 657
q0 138 -20 239.5t-66 178.5t-126.5 116.5t-195.5 39.5q-116 0 -197.5 -39.5t-128.5 -117t-68 -179.5t-21 -238t21 -238t68 -179.5t128.5 -117.5t197.5 -40q117 0 198 41t126 120t64.5 179.5t19.5 234.5zM938 1411h-111l-127 143l-131 -143h-110l182 225h119z" />
    <glyph glyph-name="Otilde" unicode="&#xd5;" horiz-adv-x="1392" 
d="M1264 657q0 -122 -18 -223.5t-60 -189.5t-106 -149t-160.5 -95.5t-219.5 -34.5q-129 0 -228 34.5t-163.5 94.5t-105 149t-57.5 190t-17 224q0 121 18.5 222.5t61.5 189.5t108 149t163 95.5t222 34.5q126 0 223 -34t160.5 -94t104 -148.5t57.5 -189.5t17 -225zM1108 657
q0 138 -20 239.5t-66 178.5t-126.5 116.5t-195.5 39.5q-116 0 -197.5 -39.5t-128.5 -117t-68 -179.5t-21 -238t21 -238t68 -179.5t128.5 -117.5t197.5 -40q117 0 198 41t126 120t64.5 179.5t19.5 234.5zM977 1542q-22 -61 -67 -98t-109 -37q-40 0 -103.5 40t-93.5 40
q-67 0 -94 -88l-90 39q34 78 74 107.5t112 29.5q37 0 100.5 -38t90.5 -38q63 0 90 84z" />
    <glyph glyph-name="Odieresis" unicode="&#xd6;" horiz-adv-x="1392" 
d="M1264 657q0 -122 -18 -223.5t-60 -189.5t-106 -149t-160.5 -95.5t-219.5 -34.5q-129 0 -228 34.5t-163.5 94.5t-105 149t-57.5 190t-17 224q0 121 18.5 222.5t61.5 189.5t108 149t163 95.5t222 34.5q126 0 223 -34t160.5 -94t104 -148.5t57.5 -189.5t17 -225zM1108 657
q0 138 -20 239.5t-66 178.5t-126.5 116.5t-195.5 39.5q-116 0 -197.5 -39.5t-128.5 -117t-68 -179.5t-21 -238t21 -238t68 -179.5t128.5 -117.5t197.5 -40q117 0 198 41t126 120t64.5 179.5t19.5 234.5zM920 1411h-134v150h134v-150zM610 1411h-133v150h133v-150z" />
    <glyph glyph-name="multiply" unicode="&#xd7;" 
d="M901 152l-90 -91l-309 312l-312 -312l-90 91l312 311l-312 309l90 90l312 -311l309 311l90 -90l-311 -309z" />
    <glyph glyph-name="Oslash" unicode="&#xd8;" horiz-adv-x="1392" 
d="M1335 1323l-170 -201q99 -166 99 -465q0 -122 -18 -223.5t-60 -189.5t-106 -149t-160.5 -95.5t-219.5 -34.5q-259 0 -397 144l-172 -203l-98 92l184 217q-88 166 -88 442q0 121 18.5 222.5t61.5 189.5t108 149t163 95.5t222 34.5q237 0 373 -123l162 188zM987 1120
q-100 111 -287 111q-116 0 -197.5 -39.5t-128.5 -117t-68 -179.5t-21 -238q0 -199 41 -315zM1108 657q0 214 -51 338l-664 -780q100 -133 307 -133q117 0 198 41t126 120t64.5 179.5t19.5 234.5z" />
    <glyph glyph-name="Ugrave" unicode="&#xd9;" horiz-adv-x="1388" 
d="M1188 485q0 -264 -117.5 -392t-361.5 -128q-267 0 -387.5 127.5t-120.5 396.5v836h149v-815q0 -126 21 -209.5t67.5 -131.5t111 -67.5t159.5 -19.5q173 0 251 98t78 330v815h150v-840zM829 1403h-106l-242 239h152z" />
    <glyph glyph-name="Uacute" unicode="&#xda;" horiz-adv-x="1388" 
d="M1188 485q0 -264 -117.5 -392t-361.5 -128q-267 0 -387.5 127.5t-120.5 396.5v836h149v-815q0 -126 21 -209.5t67.5 -131.5t111 -67.5t159.5 -19.5q173 0 251 98t78 330v815h150v-840zM901 1630l-242 -239h-106l197 239h151z" />
    <glyph glyph-name="Ucircumflex" unicode="&#xdb;" horiz-adv-x="1388" 
d="M1188 485q0 -264 -117.5 -392t-361.5 -128q-267 0 -387.5 127.5t-120.5 396.5v836h149v-815q0 -126 21 -209.5t67.5 -131.5t111 -67.5t159.5 -19.5q173 0 251 98t78 330v815h150v-840zM930 1411h-111l-127 143l-131 -143h-110l182 225h119z" />
    <glyph glyph-name="Udieresis" unicode="&#xdc;" horiz-adv-x="1388" 
d="M1188 485q0 -264 -117.5 -392t-361.5 -128q-267 0 -387.5 127.5t-120.5 396.5v836h149v-815q0 -126 21 -209.5t67.5 -131.5t111 -67.5t159.5 -19.5q173 0 251 98t78 330v815h150v-840zM926 1411h-133v150h133v-150zM616 1411h-133v150h133v-150z" />
    <glyph glyph-name="Yacute" unicode="&#xdd;" horiz-adv-x="1150" 
d="M1118 1325l-461 -729v-596h-149v588l-475 737h170l387 -598l371 598h157zM770 1657l-242 -240h-106l196 240h152z" />
    <glyph glyph-name="Thorn" unicode="&#xde;" horiz-adv-x="1136" 
d="M1026 670q0 -389 -420 -389h-256v-281h-149v1325h149v-278h234q214 0 328 -88.5t114 -288.5zM872 670q0 78 -20 130t-60 80t-90.5 39t-121.5 11h-230v-533h240q143 0 212.5 60t69.5 213z" />
    <glyph glyph-name="germandbls" unicode="&#xdf;" horiz-adv-x="1011" 
d="M911 283q0 -400 -497 -400l43 115q70 0 126 15t101 47.5t69.5 90t24.5 136.5q0 67 -27 125.5t-65.5 96t-91.5 69t-93.5 47.5t-82.5 28v109q99 64 144 109q88 91 89 186q0 48 -17.5 85t-46.5 58t-61 31t-65 10q-100 0 -142.5 -55t-42.5 -199v-987h-133v965q0 196 75 288.5
t243 92.5q66 0 123.5 -17.5t103 -52t72 -92.5t26.5 -133q0 -34 -9 -67t-23 -59t-35.5 -52.5t-40 -44.5t-44 -38t-41 -30.5t-36.5 -24t-25 -16.5q114 -47 160 -74q218 -130 219 -362z" />
    <glyph glyph-name="agrave" unicode="&#xe0;" horiz-adv-x="980" 
d="M852 0h-119q-1 6 -17.5 53t-17.5 58q-39 -56 -108.5 -95t-153.5 -39q-151 0 -245.5 67.5t-94.5 201.5q0 60 14 107t48.5 88.5t91 69t144 43t204.5 15.5h90v72q0 102 -42.5 157.5t-143.5 55.5q-152 0 -320 -82l-47 115q189 71 369 71q149 0 234 -75.5t85 -225.5v-370
q0 -33 4.5 -76t12.5 -107.5t12 -103.5zM690 207v262h-63q-216 0 -302.5 -51t-86.5 -168q0 -78 56 -123t157 -45q81 0 143.5 33.5t95.5 91.5zM569 1085h-106l-242 240h152z" />
    <glyph glyph-name="aacute" unicode="&#xe1;" horiz-adv-x="980" 
d="M852 0h-119q-1 6 -17.5 53t-17.5 58q-39 -56 -108.5 -95t-153.5 -39q-151 0 -245.5 67.5t-94.5 201.5q0 60 14 107t48.5 88.5t91 69t144 43t204.5 15.5h90v72q0 102 -42.5 157.5t-143.5 55.5q-152 0 -320 -82l-47 115q189 71 369 71q149 0 234 -75.5t85 -225.5v-370
q0 -33 4.5 -76t12.5 -107.5t12 -103.5zM690 207v262h-63q-216 0 -302.5 -51t-86.5 -168q0 -78 56 -123t157 -45q81 0 143.5 33.5t95.5 91.5zM692 1325l-241 -240h-107l197 240h151z" />
    <glyph glyph-name="acircumflex" unicode="&#xe2;" horiz-adv-x="980" 
d="M852 0h-119q-1 6 -17.5 53t-17.5 58q-39 -56 -108.5 -95t-153.5 -39q-151 0 -245.5 67.5t-94.5 201.5q0 60 14 107t48.5 88.5t91 69t144 43t204.5 15.5h90v72q0 102 -42.5 157.5t-143.5 55.5q-152 0 -320 -82l-47 115q189 71 369 71q149 0 234 -75.5t85 -225.5v-370
q0 -33 4.5 -76t12.5 -107.5t12 -103.5zM690 207v262h-63q-216 0 -302.5 -51t-86.5 -168q0 -78 56 -123t157 -45q81 0 143.5 33.5t95.5 91.5zM700 1100h-110l-127 143l-131 -143h-111l182 225h119z" />
    <glyph glyph-name="atilde" unicode="&#xe3;" horiz-adv-x="980" 
d="M852 0h-119q-1 6 -17.5 53t-17.5 58q-39 -56 -108.5 -95t-153.5 -39q-151 0 -245.5 67.5t-94.5 201.5q0 60 14 107t48.5 88.5t91 69t144 43t204.5 15.5h90v72q0 102 -42.5 157.5t-143.5 55.5q-152 0 -320 -82l-47 115q189 71 369 71q149 0 234 -75.5t85 -225.5v-370
q0 -33 4.5 -76t12.5 -107.5t12 -103.5zM690 207v262h-63q-216 0 -302.5 -51t-86.5 -168q0 -78 56 -123t157 -45q81 0 143.5 33.5t95.5 91.5zM739 1239q-22 -61 -67 -98t-109 -37q-40 0 -103 40t-93 40q-68 0 -95 -88l-90 39q34 78 74.5 107.5t112.5 29.5q37 0 100 -38
t90 -38q63 0 90 84z" />
    <glyph glyph-name="adieresis" unicode="&#xe4;" horiz-adv-x="980" 
d="M852 0h-119q-1 6 -17.5 53t-17.5 58q-39 -56 -108.5 -95t-153.5 -39q-151 0 -245.5 67.5t-94.5 201.5q0 60 14 107t48.5 88.5t91 69t144 43t204.5 15.5h90v72q0 102 -42.5 157.5t-143.5 55.5q-152 0 -320 -82l-47 115q189 71 369 71q149 0 234 -75.5t85 -225.5v-370
q0 -33 4.5 -76t12.5 -107.5t12 -103.5zM690 207v262h-63q-216 0 -302.5 -51t-86.5 -168q0 -78 56 -123t157 -45q81 0 143.5 33.5t95.5 91.5zM709 1112h-136v158h136v-158zM395 1112h-133v158h133v-158z" />
    <glyph glyph-name="aring" unicode="&#xe5;" horiz-adv-x="980" 
d="M852 0h-119q-1 6 -17.5 53t-17.5 58q-39 -56 -108.5 -95t-153.5 -39q-151 0 -245.5 67.5t-94.5 201.5q0 60 14 107t48.5 88.5t91 69t144 43t204.5 15.5h90v72q0 102 -42.5 157.5t-143.5 55.5q-152 0 -320 -82l-47 115q189 71 369 71q149 0 234 -75.5t85 -225.5v-370
q0 -33 4.5 -76t12.5 -107.5t12 -103.5zM690 207v262h-63q-216 0 -302.5 -51t-86.5 -168q0 -78 56 -123t157 -45q81 0 143.5 33.5t95.5 91.5zM662 1206q0 -70 -49.5 -119t-120.5 -49q-69 0 -119.5 49.5t-50.5 118.5q0 70 49.5 119t120.5 49q72 0 121 -48t49 -120zM590 1208
q0 43 -27 72t-71 29q-43 0 -72 -31t-29 -70q0 -36 29.5 -68t71.5 -32q47 0 72.5 29.5t25.5 70.5z" />
    <glyph glyph-name="ae" unicode="&#xe6;" horiz-adv-x="1572" 
d="M1473 422h-646q10 -342 273 -342q129 0 280 80l43 -111q-154 -72 -340 -72q-118 0 -201.5 52t-119.5 133q-65 -91 -141.5 -138t-184.5 -47q-151 0 -245.5 67.5t-94.5 201.5q0 60 14 107t48.5 88.5t91 69t144 43t204.5 15.5h96v72q0 213 -192 213q-152 0 -320 -82l-47 115
q189 71 369 71q102 0 174.5 -40t105.5 -117q96 157 291 157q93 0 163 -26t114.5 -71t71.5 -114t38 -147t11 -178zM1339 526q-3 168 -66.5 248t-195.5 80q-111 0 -178 -84.5t-74 -243.5h514zM694 231v234h-67q-147 0 -232 -22.5t-121 -68.5t-36 -124t56 -123t157 -45
q77 0 142.5 43.5t100.5 105.5z" />
    <glyph glyph-name="ccedilla" unicode="&#xe7;" horiz-adv-x="866" 
d="M770 29q-95 -38 -219 -49l-10 -41q69 0 108 -42.5t39 -91.5q0 -78 -56 -128t-151 -50q-75 0 -186 15l16 102q132 -16 160 -16q40 0 71 19.5t31 53.5q0 24 -11 38t-48.5 23t-107.5 9l30 113q-166 24 -253 151t-87 326q0 233 106 363t314 130q59 0 128.5 -15.5t117.5 -35.5
l-27 -123q-109 72 -221 72q-281 0 -281 -391q0 -171 70.5 -274t208.5 -103q105 0 229 74z" />
    <glyph glyph-name="egrave" unicode="&#xe8;" horiz-adv-x="985" 
d="M885 422h-645q10 -342 272 -342q140 0 291 80l41 -111q-154 -72 -348 -72q-103 0 -181.5 38.5t-125 105.5t-70 152.5t-23.5 185.5q0 70 11 136t39 133t71 117t112.5 81.5t157.5 31.5q91 0 160 -25.5t114 -71t73 -114t39.5 -147.5t11.5 -178zM752 526q-3 168 -67 248
t-196 80q-111 0 -177.5 -84.5t-73.5 -243.5h514zM600 1085h-106l-242 240h151z" />
    <glyph glyph-name="eacute" unicode="&#xe9;" horiz-adv-x="985" 
d="M885 422h-645q10 -342 272 -342q140 0 291 80l41 -111q-154 -72 -348 -72q-103 0 -181.5 38.5t-125 105.5t-70 152.5t-23.5 185.5q0 70 11 136t39 133t71 117t112.5 81.5t157.5 31.5q91 0 160 -25.5t114 -71t73 -114t39.5 -147.5t11.5 -178zM752 526q-3 168 -67 248
t-196 80q-111 0 -177.5 -84.5t-73.5 -243.5h514zM692 1325l-241 -240h-107l197 240h151z" />
    <glyph glyph-name="ecircumflex" unicode="&#xea;" horiz-adv-x="985" 
d="M885 422h-645q10 -342 272 -342q140 0 291 80l41 -111q-154 -72 -348 -72q-103 0 -181.5 38.5t-125 105.5t-70 152.5t-23.5 185.5q0 70 11 136t39 133t71 117t112.5 81.5t157.5 31.5q91 0 160 -25.5t114 -71t73 -114t39.5 -147.5t11.5 -178zM752 526q-3 168 -67 248
t-196 80q-111 0 -177.5 -84.5t-73.5 -243.5h514zM729 1100h-111l-126 143l-132 -143h-110l182 225h119z" />
    <glyph glyph-name="edieresis" unicode="&#xeb;" horiz-adv-x="985" 
d="M885 422h-645q10 -342 272 -342q140 0 291 80l41 -111q-154 -72 -348 -72q-103 0 -181.5 38.5t-125 105.5t-70 152.5t-23.5 185.5q0 70 11 136t39 133t71 117t112.5 81.5t157.5 31.5q91 0 160 -25.5t114 -71t73 -114t39.5 -147.5t11.5 -178zM752 526q-3 168 -67 248
t-196 80q-111 0 -177.5 -84.5t-73.5 -243.5h514zM725 1135h-133v149h133v-149zM416 1135h-133v149h133v-149z" />
    <glyph glyph-name="igrave" unicode="&#xec;" horiz-adv-x="425" 
d="M377 1085h-107l-241 240h151zM281 0h-134v936h134v-936z" />
    <glyph glyph-name="iacute" unicode="&#xed;" horiz-adv-x="425" 
d="M389 1325l-242 -240h-106l197 240h151zM283 0h-133v936h133v-936z" />
    <glyph glyph-name="icircumflex" unicode="&#xee;" horiz-adv-x="425" 
d="M453 1100h-111l-127 143l-131 -143h-111l183 225h118zM279 0h-134v936h134v-936z" />
    <glyph glyph-name="idieresis" unicode="&#xef;" horiz-adv-x="425" 
d="M434 1163h-133v150h133v-150zM125 1163h-133v150h133v-150zM283 0h-133v936h133v-936z" />
    <glyph glyph-name="eth" unicode="&#xf0;" horiz-adv-x="997" 
d="M905 580q0 -99 -9.5 -180.5t-37.5 -164.5t-73.5 -139t-122 -91.5t-179.5 -35.5q-115 0 -205 58.5t-138 154.5t-48 211q0 195 98.5 308.5t284.5 113.5q88 0 168 -56.5t123 -148.5q0 381 -225 523l-176 -119l-109 63l162 109q-72 30 -191 47l-53 133q219 -25 367 -96
l155 106l107 -63l-156 -105q258 -188 258 -628zM748 498q-13 34 -32 64.5t-50.5 64.5t-79.5 54.5t-107 20.5q-235 0 -235 -309q0 -143 65 -226t172 -83q90 0 146.5 36.5t88.5 129.5t32 248z" />
    <glyph glyph-name="ntilde" unicode="&#xf1;" horiz-adv-x="1001" 
d="M858 0h-133v582q0 48 -4 84t-16.5 73t-34.5 61t-60.5 39t-91.5 15q-84 0 -148.5 -61t-93.5 -138v-655h-133v737q0 46 -8.5 114t-9.5 85h117l28 -139q2 2 16 18.5t21 25t24.5 26t31 27.5t35 24t41.5 21.5t45.5 13t52.5 5.5q176 0 248.5 -96t72.5 -272v-590zM786 1239
q-22 -61 -67 -98t-109 -37q-40 0 -103 40t-93 40q-68 0 -95 -88l-90 39q34 78 74.5 107.5t112.5 29.5q37 0 100 -38t90 -38q63 0 90 84z" />
    <glyph glyph-name="ograve" unicode="&#xf2;" horiz-adv-x="1017" 
d="M922 473q0 -84 -12.5 -155.5t-43 -135.5t-77 -108.5t-117.5 -70.5t-162 -26t-162.5 26t-118 70t-77 108t-43.5 135.5t-13 156.5q0 80 13 149.5t43.5 132.5t77 107t118 70t162.5 26q92 0 163 -25t117.5 -68t76.5 -105t42.5 -132.5t12.5 -154.5zM782 473q0 90 -13.5 157
t-44 119t-84 78.5t-130.5 26.5q-274 0 -274 -381q0 -88 13.5 -156t44 -122.5t85 -83.5t131.5 -29q78 0 132 28t84 82.5t43 122t13 158.5zM645 1085h-106l-242 240h152z" />
    <glyph glyph-name="oacute" unicode="&#xf3;" horiz-adv-x="1017" 
d="M922 473q0 -84 -12.5 -155.5t-43 -135.5t-77 -108.5t-117.5 -70.5t-162 -26t-162.5 26t-118 70t-77 108t-43.5 135.5t-13 156.5q0 80 13 149.5t43.5 132.5t77 107t118 70t162.5 26q92 0 163 -25t117.5 -68t76.5 -105t42.5 -132.5t12.5 -154.5zM782 473q0 90 -13.5 157
t-44 119t-84 78.5t-130.5 26.5q-274 0 -274 -381q0 -88 13.5 -156t44 -122.5t85 -83.5t131.5 -29q78 0 132 28t84 82.5t43 122t13 158.5zM707 1325l-242 -240h-107l197 240h152z" />
    <glyph glyph-name="ocircumflex" unicode="&#xf4;" horiz-adv-x="1017" 
d="M922 473q0 -84 -12.5 -155.5t-43 -135.5t-77 -108.5t-117.5 -70.5t-162 -26t-162.5 26t-118 70t-77 108t-43.5 135.5t-13 156.5q0 80 13 149.5t43.5 132.5t77 107t118 70t162.5 26q92 0 163 -25t117.5 -68t76.5 -105t42.5 -132.5t12.5 -154.5zM782 473q0 90 -13.5 157
t-44 119t-84 78.5t-130.5 26.5q-274 0 -274 -381q0 -88 13.5 -156t44 -122.5t85 -83.5t131.5 -29q78 0 132 28t84 82.5t43 122t13 158.5zM752 1100h-111l-127 143l-131 -143h-111l183 225h118z" />
    <glyph glyph-name="otilde" unicode="&#xf5;" horiz-adv-x="1017" 
d="M922 473q0 -84 -12.5 -155.5t-43 -135.5t-77 -108.5t-117.5 -70.5t-162 -26t-162.5 26t-118 70t-77 108t-43.5 135.5t-13 156.5q0 80 13 149.5t43.5 132.5t77 107t118 70t162.5 26q92 0 163 -25t117.5 -68t76.5 -105t42.5 -132.5t12.5 -154.5zM782 473q0 90 -13.5 157
t-44 119t-84 78.5t-130.5 26.5q-274 0 -274 -381q0 -88 13.5 -156t44 -122.5t85 -83.5t131.5 -29q78 0 132 28t84 82.5t43 122t13 158.5zM766 1239q-22 -61 -67 -98t-109 -37q-40 0 -103.5 40t-93.5 40q-67 0 -94 -88l-90 39q34 78 74 107.5t112 29.5q37 0 100.5 -38
t90.5 -38q63 0 90 84z" />
    <glyph glyph-name="odieresis" unicode="&#xf6;" horiz-adv-x="1017" 
d="M922 473q0 -84 -12.5 -155.5t-43 -135.5t-77 -108.5t-117.5 -70.5t-162 -26t-162.5 26t-118 70t-77 108t-43.5 135.5t-13 156.5q0 80 13 149.5t43.5 132.5t77 107t118 70t162.5 26q92 0 163 -25t117.5 -68t76.5 -105t42.5 -132.5t12.5 -154.5zM782 473q0 90 -13.5 157
t-44 119t-84 78.5t-130.5 26.5q-274 0 -274 -381q0 -88 13.5 -156t44 -122.5t85 -83.5t131.5 -29q78 0 132 28t84 82.5t43 122t13 158.5zM725 1135h-133v149h133v-149zM416 1135h-133v149h133v-149z" />
    <glyph glyph-name="divide" unicode="&#xf7;" 
d="M580 715h-160v170h160v-170zM926 391h-854v111h854v-111zM580 33h-160v170h160v-170z" />
    <glyph glyph-name="oslash" unicode="&#xf8;" horiz-adv-x="1017" 
d="M999 893l-129 -139q52 -112 52 -281q0 -84 -12.5 -155.5t-43 -135.5t-77 -108.5t-117.5 -70.5t-162 -26q-169 0 -270 91l-117 -123l-96 92l129 135q-60 117 -60 301q0 80 13 149.5t43.5 132.5t77 107t118 70t162.5 26q181 0 278 -100l117 125zM705 768q-67 86 -195 86
q-274 0 -274 -381q0 -115 24 -188zM782 473q0 101 -16 166l-442 -481q66 -76 186 -76q78 0 132 28t84 82.5t43 122t13 158.5z" />
    <glyph glyph-name="ugrave" unicode="&#xf9;" horiz-adv-x="989" 
d="M627 1085h-107l-241 240h151zM864 0h-116l-31 139q-3 -3 -21.5 -26t-30 -36t-36 -34.5t-47 -34t-55.5 -22t-68 -9.5q-170 0 -243 97.5t-73 271.5v590h133v-582q0 -48 4 -84t16.5 -73t33.5 -61t58.5 -39t88.5 -15q83 0 143.5 60t90.5 139v655h133v-737q0 -45 9 -110.5
t11 -88.5z" />
    <glyph glyph-name="uacute" unicode="&#xfa;" horiz-adv-x="989" 
d="M831 0h-116l-31 139q-3 -3 -21.5 -26t-30 -36t-36 -34.5t-47 -34t-55.5 -22t-68 -9.5q-88 0 -150.5 27t-97.5 77.5t-51 115.5t-16 149v590h133v-582q0 -48 4 -84t16 -73t33.5 -61t58.5 -39t88 -15q44 0 83.5 18.5t68 49t48.5 63.5t34 68v655h133v-737q0 -45 9 -110.5
t11 -88.5zM655 1325l-241 -240h-107l197 240h151z" />
    <glyph glyph-name="ucircumflex" unicode="&#xfb;" horiz-adv-x="989" 
d="M864 0h-116l-31 139q-3 -3 -21.5 -26t-30 -36t-36 -34.5t-47 -34t-55.5 -22t-68 -9.5q-170 0 -243 97.5t-73 271.5v590h133v-582q0 -48 4 -84t16.5 -73t33.5 -61t58.5 -39t88.5 -15q83 0 143.5 60t90.5 139v655h133v-737q0 -45 9 -110.5t11 -88.5zM735 1100h-110
l-127 143l-131 -143h-111l182 225h119z" />
    <glyph glyph-name="udieresis" unicode="&#xfc;" horiz-adv-x="989" 
d="M864 0h-116l-31 139q-3 -3 -21.5 -26t-30 -36t-36 -34.5t-47 -34t-55.5 -22t-68 -9.5q-170 0 -243 97.5t-73 271.5v590h133v-582q0 -48 4 -84t16.5 -73t33.5 -61t58.5 -39t88.5 -15q83 0 143.5 60t90.5 139v655h133v-737q0 -45 9 -110.5t11 -88.5zM715 1135h-133v149h133
v-149zM406 1135h-134v149h134v-149z" />
    <glyph glyph-name="yacute" unicode="&#xfd;" horiz-adv-x="995" 
d="M913 936l-391 -1086q-41 -113 -101.5 -174t-182.5 -104l-43 117q146 40 180 133l82 217l-375 897h143l299 -743l254 743h135zM696 1325l-241 -240h-107l197 240h151z" />
    <glyph glyph-name="thorn" unicode="&#xfe;" horiz-adv-x="1005" 
d="M909 473q0 -103 -23 -191t-69.5 -157t-124 -108.5t-178.5 -39.5q-80 0 -144 39t-100 95l-28 -480h-117q8 77 13 303t5 353v1059h133v-549q37 62 112.5 111.5t160.5 49.5q96 0 167 -38.5t112.5 -107t61 -153.5t19.5 -186zM770 469q0 200 -67 292.5t-179 92.5
q-44 0 -83 -16t-64 -36.5t-48.5 -52.5t-33.5 -51t-23 -45v-428q82 -143 230 -143q135 0 201.5 99t66.5 288z" />
    <glyph glyph-name="ydieresis" unicode="&#xff;" horiz-adv-x="995" 
d="M913 936l-391 -1086q-41 -113 -101.5 -174t-182.5 -104l-43 117q146 40 180 133l82 217l-375 897h143l299 -743l254 743h135zM735 1149h-133v149h133v-149zM426 1149h-133v149h133v-149z" />
    <glyph glyph-name="OE" unicode="&#x152;" horiz-adv-x="1918" 
d="M1774 0h-859q-96 -35 -215 -35q-129 0 -228 34.5t-163.5 94.5t-105 149t-57.5 190t-17 224q0 121 18.5 222.5t61.5 189.5t108 149t163 95.5t222 34.5q93 0 183 -23h870v-117h-678q148 -133 162 -465h473v-116h-471q-4 -356 -158 -510h691v-117zM1087 657
q0 111 -10.5 195.5t-37 158t-70 120.5t-111 73.5t-158.5 26.5q-116 0 -197.5 -39.5t-128.5 -117t-68 -179.5t-21 -238t21 -238t68 -179.5t128.5 -117.5t197.5 -40q91 0 159.5 28t111.5 76t69.5 122.5t36.5 157.5t10 191z" />
    <glyph glyph-name="oe" unicode="&#x153;" horiz-adv-x="1665" 
d="M1565 422h-645q10 -342 272 -342q132 0 283 80l41 -111q-154 -72 -340 -72q-235 0 -324 207q-88 -207 -342 -207q-91 0 -162.5 26t-118 70t-77 108t-43.5 135.5t-13 156.5q0 80 13 149.5t43.5 132.5t77 107t118 70t162.5 26q257 0 344 -206q91 206 313 206q93 0 163 -26
t114.5 -71t71.5 -114t38 -147t11 -178zM1432 526q-3 168 -67 248t-196 80q-111 0 -177.5 -84.5t-73.5 -243.5h514zM782 473q0 90 -13.5 157t-44 119t-84 78.5t-130.5 26.5q-274 0 -274 -381q0 -88 13.5 -156t44 -122.5t85 -83.5t131.5 -29q78 0 132 28t84 82.5t43 122
t13 158.5z" />
    <glyph glyph-name="Ydieresis" unicode="&#x178;" horiz-adv-x="1150" 
d="M1118 1325l-461 -729v-596h-149v588l-475 737h170l387 -598l371 598h157zM811 1479h-131v151h131v-151zM506 1479h-131v151h131v-151z" />
    <glyph glyph-name="circumflex" unicode="&#x2c6;" horiz-adv-x="425" 
d="M453 1100h-111l-127 143l-131 -143h-111l183 225h118z" />
    <glyph glyph-name="tilde" unicode="&#x2dc;" horiz-adv-x="425" 
d="M492 1239q-21 -60 -67 -97.5t-110 -37.5q-40 0 -103 40t-93 40q-67 0 -94 -88l-91 39q34 78 74.5 107.5t112.5 29.5q37 0 100 -38t90 -38q63 0 90 84z" />
    <glyph glyph-name="uni2000" unicode="&#x2000;" horiz-adv-x="855" 
 />
    <glyph glyph-name="uni2001" unicode="&#x2001;" horiz-adv-x="1710" 
 />
    <glyph glyph-name="uni2002" unicode="&#x2002;" horiz-adv-x="855" 
 />
    <glyph glyph-name="uni2003" unicode="&#x2003;" horiz-adv-x="1710" 
 />
    <glyph glyph-name="uni2004" unicode="&#x2004;" horiz-adv-x="570" 
 />
    <glyph glyph-name="uni2005" unicode="&#x2005;" horiz-adv-x="427" 
 />
    <glyph glyph-name="uni2006" unicode="&#x2006;" horiz-adv-x="285" 
 />
    <glyph glyph-name="uni2007" unicode="&#x2007;" horiz-adv-x="285" 
 />
    <glyph glyph-name="uni2008" unicode="&#x2008;" horiz-adv-x="213" 
 />
    <glyph glyph-name="uni2009" unicode="&#x2009;" horiz-adv-x="342" 
 />
    <glyph glyph-name="uni200A" unicode="&#x200a;" horiz-adv-x="95" 
 />
    <glyph glyph-name="uni2010" unicode="&#x2010;" horiz-adv-x="669" 
d="M610 438h-551v119h551v-119z" />
    <glyph glyph-name="uni2011" unicode="&#x2011;" horiz-adv-x="669" 
d="M610 438h-551v119h551v-119z" />
    <glyph glyph-name="figuredash" unicode="&#x2012;" horiz-adv-x="669" 
d="M610 438h-551v119h551v-119z" />
    <glyph glyph-name="endash" unicode="&#x2013;" horiz-adv-x="1024" 
d="M1026 430h-1028v119h1028v-119z" />
    <glyph glyph-name="emdash" unicode="&#x2014;" horiz-adv-x="2048" 
d="M2050 424h-2052v125h2052v-125z" />
    <glyph glyph-name="quoteleft" unicode="&#x2018;" horiz-adv-x="499" 
d="M397 1327l-174 -385h-131l203 385h102z" />
    <glyph glyph-name="quoteright" unicode="&#x2019;" horiz-adv-x="499" 
d="M403 1325l-198 -385h-107l172 385h133z" />
    <glyph glyph-name="quotesinglbase" unicode="&#x201a;" horiz-adv-x="499" 
d="M403 205l-198 -385h-107l172 385h133z" />
    <glyph glyph-name="quotedblleft" unicode="&#x201c;" horiz-adv-x="745" 
d="M664 1327l-175 -385h-131l201 385h105zM387 1327l-174 -385h-131l203 385h102z" />
    <glyph glyph-name="quotedblright" unicode="&#x201d;" horiz-adv-x="745" 
d="M664 1325l-203 -385h-105l174 385h134zM387 1325l-201 -385h-104l174 385h131z" />
    <glyph glyph-name="quotedblbase" unicode="&#x201e;" horiz-adv-x="745" 
d="M664 205l-203 -385h-105l174 385h134zM387 205l-201 -385h-104l174 385h131z" />
    <glyph glyph-name="bullet" unicode="&#x2022;" 
d="M760 664q0 -109 -76 -186t-184 -77q-110 0 -186 76.5t-76 186.5q0 109 76.5 184.5t185.5 75.5t184.5 -75.5t75.5 -184.5z" />
    <glyph glyph-name="ellipsis" unicode="&#x2026;" horiz-adv-x="1497" 
d="M1327 0h-160v170h160v-170zM827 0h-157v170h157v-170zM330 0h-160v170h160v-170z" />
    <glyph glyph-name="uni202F" unicode="&#x202f;" horiz-adv-x="342" 
 />
    <glyph glyph-name="guilsinglleft" unicode="&#x2039;" horiz-adv-x="499" 
d="M408 926l-199 -369l197 -369h-130l-190 365l190 373h132z" />
    <glyph glyph-name="guilsinglright" unicode="&#x203a;" horiz-adv-x="499" 
d="M420 553l-191 -365h-129l197 369l-199 369h131z" />
    <glyph glyph-name="uni205F" unicode="&#x205f;" horiz-adv-x="427" 
 />
    <glyph glyph-name="trademark" unicode="&#x2122;" horiz-adv-x="1847" 
d="M1630 598h-92v631l-272 -631h-74l-272 631v-631h-89v727h142l260 -604l262 604h135v-727zM729 1251h-233v-655h-97v655h-229v74h559v-74z" />
    <glyph glyph-name="uni25FC" unicode="&#x25fc;" horiz-adv-x="931" 
d="M0 932h932v-932h-932v932z" />
    <glyph glyph-name="uniFB01" unicode="&#xfb01;" horiz-adv-x="917" 
d="M778 1165h-147v160h147v-160zM772 0h-135v936h135v-936zM520 1247q-116 -21 -165.5 -65t-49.5 -135v-111h172v-105h-172v-831h-133v831h-141v105h141v100q0 263 303 326z" />
    <glyph glyph-name="uniFB02" unicode="&#xfb02;" horiz-adv-x="917" 
d="M774 0h-133v1346h133v-1346zM520 1247q-116 -21 -165.5 -65t-49.5 -135v-111h172v-105h-172v-831h-133v831h-141v105h141v100q0 263 303 326z" />
    </font>
</defs>
</svg>
